<?xml version="1.0" standalone="no"?>
<!DOCTYPE svg PUBLIC "-//W3C//DTD SVG 20010904//EN"
 "http://www.w3.org/TR/2001/REC-SVG-20010904/DTD/svg10.dtd">
<svg version="1.0" xmlns="http://www.w3.org/2000/svg"
 width="260.000000pt" height="260.000000pt" viewBox="0 0 260.000000 260.000000"
 preserveAspectRatio="xMidYMid meet">
<metadata>
Created by potrace 1.11, written by Peter Selinger 2001-2013
</metadata>
<g transform="translate(0.000000,260.000000) scale(0.100000,-0.100000)"
fill="#000000" stroke="none">
<path d="M1 2330 l1 -190 194 0 194 0 0 190 0 190 -195 0 -194 0 0 -190z"/>
<path d="M1 1025 l1 -955 194 0 194 0 0 955 0 955 -194 0 -195 0 0 -955z"/>
<path d="M656 1033 c1 -521 2 -951 3 -955 0 -5 88 -8 194 -8 l193 0 -1 752 c0
414 1 758 3 765 5 16 624 15 695 -2 207 -49 367 -194 431 -390 25 -78 25 -89
26 -622 l1 -503 195 0 194 0 1 33 c4 155 0 976 -5 1027 -37 364 -297 684 -646
798 -147 48 -174 50 -745 51 l-540 2 1 -948z"/>
</g>
</svg>
